<svg id="Layer_1" data-name="Layer 1" xmlns="http://www.w3.org/2000/svg" viewBox="0 0 33.03 35.85"><defs><style>.cls-1{fill:#234e70;}.cls-2{fill:#0e8744;}</style></defs><path class="cls-1" d="M32.22,22.5H24.84V38.75h7.38V28.36c0-.18-.06-.41,0-.55a.87.87,0,0,1,.52-.43c.13,0,.36.22.46.4a1.23,1.23,0,0,1,0,.55v10.5c0,1-.08,1-1,1H13.46c-1,0-1-.07-1-1a18.26,18.26,0,0,1,0-2c0-.23.31-.43.48-.64.18.22.49.43.52.67a16.18,16.18,0,0,1,0,1.85h7.37V22.51H13.46V33.72c0,.21.06.46,0,.62a.86.86,0,0,1-.53.43c-.13,0-.37-.24-.44-.42a2,2,0,0,1,0-.69c0-3.57,0-7.14,0-10.71a1.68,1.68,0,0,0-.55-1.35c-1.72-1.68-3.41-3.39-5.1-5.09-.61-.61-.61-.72,0-1.31,1.54-1.53,1.19-1.54,2.74,0,1.92,1.91,3.82,3.83,5.76,5.72a1.58,1.58,0,0,0,1,.44q6.59,0,13.16,0a1.54,1.54,0,0,0,1-.4c2.18-2.15,4.34-4.32,6.5-6.48.59-.59.73-.59,1.31,0,1.53,1.54,1.53,1.19,0,2.69s-3.05,3-4.54,4.57a1.79,1.79,0,0,0-.42,1c-.06.79,0,1.58,0,2.38,0,.37,0,.74-.54.72s-.51-.38-.51-.76C32.22,24.26,32.22,23.4,32.22,22.5ZM23.66,38.76V22.51H22V38.76ZM8,15.37l-.39.48c1.73,1.73,3.42,3.4,5.08,5.1a1.21,1.21,0,0,0,1.28.4Zm29.64.06-5.93,5.93A1.23,1.23,0,0,0,33,21c1.39-1.44,2.82-2.84,4.24-4.25.29-.29.63-.53,1-.82Z" transform="translate(-6.32 -4)"/><path class="cls-2" d="M22.84,17.77a6.87,6.87,0,0,1-6-10.17,1.11,1.11,0,0,1,.29-.47,3.3,3.3,0,0,1,.71-.24c.05.26.21.55.15.78a18.33,18.33,0,0,0-.88,2.62,5.78,5.78,0,0,0,5.08,6.41,5.88,5.88,0,0,0,6.43-4.76,5.58,5.58,0,0,0-2.4-5.8,5.61,5.61,0,0,0-6.33-.25c-.34.18-.7.42-1,0s.13-.7.46-.91a6.88,6.88,0,1,1,3.5,12.81Z" transform="translate(-6.32 -4)"/><path class="cls-2" d="M22.24,7.5c.19-.5-.22-1.32.59-1.33s.43.81.68,1.14A16.7,16.7,0,0,1,25,8.46a1.21,1.21,0,0,1,.22.85.71.71,0,0,1-.42.51.72.72,0,0,1-.55-.39,1.76,1.76,0,0,0-2.41-.62,1.05,1.05,0,0,0-.28.85,1.11,1.11,0,0,0,.62.64,2.81,2.81,0,0,0,1,.06A2,2,0,0,1,25.22,12a1.93,1.93,0,0,1-1.59,2.19l-.18.06c-.24.45.25,1.34-.63,1.33s-.37-.85-.59-1.33a1.79,1.79,0,0,1-1.71-1.35A1,1,0,0,1,20.8,12c.45-.23.58.18.72.57a1,1,0,0,0,.61.57,2.65,2.65,0,0,0,1.37,0c.29-.1.67-.56.64-.82s-.42-.65-.74-.84-.59,0-.89,0A2,2,0,0,1,20.46,9.8,1.93,1.93,0,0,1,22,7.59Z" transform="translate(-6.32 -4)"/><path class="cls-1" d="M16.56,19.15c-.13.14-.23.35-.37.39a.66.66,0,0,1-.57-.09c-.89-.85-1.77-1.72-2.61-2.62-.13-.13,0-.49,0-.74.25,0,.59-.09.73,0,.89.83,1.73,1.69,2.58,2.56A1.93,1.93,0,0,1,16.56,19.15Z" transform="translate(-6.32 -4)"/><path class="cls-1" d="M29.74,19.61c-.46,0-.74-.5-.45-.8.89-.95,1.83-1.86,2.77-2.76a.61.61,0,0,1,.61.06c.12.12.18.51.08.61-.91,1-1.85,1.88-2.8,2.81C29.89,19.59,29.78,19.59,29.74,19.61Z" transform="translate(-6.32 -4)"/><path class="cls-1" d="M19.06,19.61a.64.64,0,0,1-.27-.1c-.57-.55-1.14-1.09-1.65-1.69-.11-.11,0-.5.09-.65a.58.58,0,0,1,.6,0,20.12,20.12,0,0,1,1.67,1.66C19.78,19.13,19.52,19.59,19.06,19.61Z" transform="translate(-6.32 -4)"/><path class="cls-1" d="M28.72,17.55a3.32,3.32,0,0,1-.33.48,12.74,12.74,0,0,1-1.34,1.31c-.19.15-.55.08-.83.11,0-.28,0-.64.14-.83a11.21,11.21,0,0,1,1.42-1.42.77.77,0,0,1,.62-.08C28.53,17.15,28.61,17.38,28.72,17.55Z" transform="translate(-6.32 -4)"/><path class="cls-2" d="M32.05,11.92c-.37-.33-.8-.53-.85-.79-.07-.48.38-.54.77-.54s1,0,.9.56C32.85,11.39,32.42,11.59,32.05,11.92Z" transform="translate(-6.32 -4)"/><path class="cls-2" d="M34.54,10.35c.38.32.8.51.83.75.07.53-.41.57-.82.57s-.9,0-.85-.54C33.73,10.88,34.17,10.67,34.54,10.35Z" transform="translate(-6.32 -4)"/><path class="cls-2" d="M12.4,6.91c-.37-.32-.8-.51-.82-.75-.06-.53.41-.56.83-.56s.9,0,.84.54C13.22,6.39,12.78,6.59,12.4,6.91Z" transform="translate(-6.32 -4)"/><path class="cls-2" d="M14.89,6.94c-.37-.36-.8-.59-.81-.84,0-.53.49-.49.89-.5s.85.05.78.53C15.72,6.38,15.29,6.59,14.89,6.94Z" transform="translate(-6.32 -4)"/><path class="cls-2" d="M14.32,7.26c-.14.52-.09,1-.68,1s-.48-.47-.49-.84,0-.91.54-.83C13.93,6.59,14.11,7,14.32,7.26Z" transform="translate(-6.32 -4)"/><path class="cls-2" d="M32.63,10c.14-.52.08-1,.67-1s.5.45.5.83.05.91-.53.84C33,10.67,32.84,10.26,32.63,10Z" transform="translate(-6.32 -4)"/><path class="cls-2" d="M33.94,12.51c-.21.25-.4.67-.64.7-.56.06-.53-.44-.53-.84s-.05-.82.49-.83S33.79,12,33.94,12.51Z" transform="translate(-6.32 -4)"/><path class="cls-2" d="M14.43,4.89c-.32.37-.5.79-.74.82-.56.07-.54-.42-.54-.82s0-.9.52-.84C13.91,4.08,14.11,4.52,14.43,4.89Z" transform="translate(-6.32 -4)"/><path class="cls-1" d="M23.66,38.76H22V22.51h1.65Z" transform="translate(-6.32 -4)"/></svg>