<svg id="Layer_1" data-name="Layer 1" xmlns="http://www.w3.org/2000/svg" viewBox="0 0 34.03 41.84"><defs><style>.cls-1{fill:#234e70;}.cls-2{fill:#0e8744;}</style></defs><path class="cls-1" d="M30.28,24.46l1.8,2a12.81,12.81,0,0,0,3.48-6,13.13,13.13,0,0,0-.76-9c-.06-.12-.12-.24-.17-.37A.81.81,0,0,1,35,9.92a.76.76,0,0,1,1.11.5,24.51,24.51,0,0,1,1.37,4.42A14.65,14.65,0,0,1,32.94,28c-.78.76-1.07.74-1.81-.08s-1.57-1.74-2.34-2.61-.71-1,.09-1.82A8.93,8.93,0,0,0,26.47,9a8.49,8.49,0,0,0-9,.81,8.72,8.72,0,0,0-3.72,8.09l.5.09c.78.18,1,.8.5,1.39-1.13,1.25-2.29,2.47-3.47,3.68-.45.47-.93.33-1.34-.11-1-1.07-2-2.12-3-3.23a1.65,1.65,0,0,1-.48-1.17c.08-.32.64-.52,1.14-.88.07-.8.09-1.86.24-2.89A15,15,0,0,1,30.3,4.12c.21.13.51.22.6.41s.28.78.14,1-.62.31-1,.32-.42-.22-.63-.34A13.39,13.39,0,0,0,9.25,16.83c0,.85-.18,1.7-.25,2.55a.56.56,0,0,0,.16.35l1.49,1.56c.5-.53,1-1,1.42-1.52a.72.72,0,0,0,.17-.47c-.74-4.38.52-8.07,4.08-10.73a9.93,9.93,0,0,1,11.43-.76,10.08,10.08,0,0,1,5.41,10C33,20.21,32.45,21.42,30.28,24.46Z" transform="translate(-6.31 -2)"/><path class="cls-1" d="M30.38,35.52c1.76-.2,3.54-.42,5.32-.61a11.8,11.8,0,0,1,1.78-.09,3.07,3.07,0,0,1,.61,6c-3.6.91-7.21,1.84-10.84,2.65A14.87,14.87,0,0,1,16.9,42c-2-1.08-4.09-2.15-6.09-3.3a5.62,5.62,0,0,0-3.17-.8c-1.12.07-1.32-.19-1.33-1.31V28.72c0-1,.21-1.26,1.25-1.22a7.75,7.75,0,0,0,3-.55,11.58,11.58,0,0,1,10.28.82c2.64,1.52,5.22,3.12,7.83,4.71C29.76,33.14,30,33.58,30.38,35.52ZM8,36.29c1.9-.42,3.21.83,4.69,1.57,1.65.82,3.25,1.75,4.89,2.59A17.21,17.21,0,0,0,20,41.51a13.41,13.41,0,0,0,7.56.24c3.21-.81,6.43-1.59,9.65-2.38.69-.16,1.31-.41,1.44-1.23.16-1-.55-1.79-1.74-1.69-1.79.14-3.57.38-5.35.59a7.46,7.46,0,0,0-3.16.85,2.84,2.84,0,0,1-2.18.1c-1.91-.77-3.75-1.71-5.58-2.66a1.17,1.17,0,0,1-.43-1c.11-.56.64-.57,1.12-.39a3,3,0,0,1,.44.21l4.56,2.18c.93.43,1.66.28,2.06-.42a1.43,1.43,0,0,0-.71-2c-2.53-1.54-5-3.09-7.61-4.59a10,10,0,0,0-7.93-1.1c-1.39.37-2.75.84-4.18,1.27Z" transform="translate(-6.31 -2)"/><path class="cls-2" d="M23.82,18.12a3.73,3.73,0,0,0-.75-.67c-.56-.31-1.21-.48-1.77-.8a2.38,2.38,0,0,1-.07-4.19c.23-.15.35-.48.56-.68s.53-.59.82-.61.5.36.75.57a5.78,5.78,0,0,0,.64.58c.32.2.77.25,1,.51s.46.82.33,1a1.34,1.34,0,0,1-1.05.39c-.53,0-1-.4-1.55-.42a1.38,1.38,0,0,0-1,.57c-.29.49.14.79.57,1s.9.38,1.35.56a2.54,2.54,0,0,1,1.79,2.22A2.76,2.76,0,0,1,24,20.85c-.36.22-.67.37-.71.87a.88.88,0,0,1-.65.57,1,1,0,0,1-.8-.49.89.89,0,0,0-.81-.74,1.14,1.14,0,0,1-.38-.16c-.52-.3-1.17-.58-.78-1.35s.91-.4,1.47-.17a3.08,3.08,0,0,0,1.34.22C23.36,19.56,23.82,19,23.82,18.12Z" transform="translate(-6.31 -2)"/><path class="cls-1" d="M33.34,6.74c.2.3.53.57.58.89a.65.65,0,0,1-.79.78c-.3-.06-.73-.47-.74-.74s.37-.63.58-1Z" transform="translate(-6.31 -2)"/></svg>