<svg id="Layer_1" data-name="Layer 1" xmlns="http://www.w3.org/2000/svg" viewBox="0 0 38.85 31.92"><defs><style>.cls-1{fill:#234e70;}.cls-2{fill:#0e8744;}.cls-3{font-size:2.15px;fill:#fff;font-family:Montserrat-Bold, Montserrat;font-weight:700;}.cls-4{letter-spacing:-0.01em;}</style></defs><path class="cls-1" d="M5,19.43s0-.06,0-.07C3.6,18.78,3,18,3.24,16.86a2.09,2.09,0,0,1,2.54-1.71c1.91.25,2.92-.42,3.56-2.23A18.7,18.7,0,0,1,11.4,9.33a2.44,2.44,0,0,1,2.25-1.14c1.66,0,3.32,0,5,0,.25-2.09.72-2.5,2.66-2.5h2.58c2,0,2.37.34,2.69,2.49,1.52,0,3.08.06,4.63,0a3.06,3.06,0,0,1,3,1.65c.9,1.55,1.73,3.13,2.55,4.72.22.41.43.62.92.58s1.21,0,1.81,0c1.45,0,2.33.64,2.52,1.79s-.43,2-1.81,2.51c.12.24.23.48.34.72a12,12,0,0,1,.73,9.6,11.8,11.8,0,0,1-1,1.81,1.48,1.48,0,0,0-.22.68c0,.62,0,1.26,0,1.89a1.88,1.88,0,0,1-2,2.06q-1.66,0-3.33,0a1.75,1.75,0,0,1-1.84-1.87c0-.5,0-1,0-1.45H12.4c0,.46,0,1,0,1.51a1.68,1.68,0,0,1-1.8,1.81q-1.74,0-3.48,0a1.83,1.83,0,0,1-1.92-2V34a6.27,6.27,0,0,0-.79-3.29c-1.7-3-1.54-6.19-.33-9.35C4.33,20.67,4.67,20.06,5,19.43ZM22.58,31.87l0-.35c2.54,0,5.1.09,7.64,0s5.32-.47,8-.69A1.89,1.89,0,0,0,40,29.26,11,11,0,0,0,37.23,17.9a.88.88,0,0,0-.71-.25,53.41,53.41,0,0,1-9.92,1.08,83.51,83.51,0,0,1-17.8-.95,1.22,1.22,0,0,0-.92.28,10.42,10.42,0,0,0-3,10.53c.45,1.85.8,2.2,2.71,2.33C12.61,31.28,17.6,31.56,22.58,31.87ZM9,16.41l.5.13a77.66,77.66,0,0,0,14.92.91A.79.79,0,0,0,25,17a4.29,4.29,0,0,1,7.73-.54.77.77,0,0,0,.56.34c1-.11,1.88-.28,3-.47-1.17-2.1-2.26-4.06-3.36-6a1.6,1.6,0,0,0-1.48-.86q-8.82,0-17.63,0a1.73,1.73,0,0,0-1.65,1C11.11,12.4,10.08,14.36,9,16.41ZM34.1,32.65a11.42,11.42,0,0,0,0,1.66.78.78,0,0,0,.55.52,32,32,0,0,0,3.25,0,.87.87,0,0,0,.66-.53,17.32,17.32,0,0,0,0-2.17ZM6.54,32.13c0,.71,0,1.36,0,2s.24.72.74.71H9.16c2.21,0,1.9.41,1.91-2a1.44,1.44,0,0,0-.07-.23Zm24.88-15a2.71,2.71,0,0,0-2.83-1.47,2.56,2.56,0,0,0-2.22,1.8ZM20.06,8h5c.14-.7-.08-1-.8-1C23.16,7,22,7,20.89,7,20.18,7,19.91,7.29,20.06,8ZM7.59,16.63l-.14-.21a12.42,12.42,0,0,0-1.93,0,1.51,1.51,0,0,0-.91.59.89.89,0,0,0,.28.81,1.74,1.74,0,0,0,1.25,0A8.5,8.5,0,0,0,7.59,16.63Zm30.13-.21A8.22,8.22,0,0,0,39,17.82a1.7,1.7,0,0,0,1.24.06.85.85,0,0,0,.35-.77,1.4,1.4,0,0,0-.85-.66A13.35,13.35,0,0,0,37.72,16.42Z" transform="translate(-3.15 -4.27)"/><path class="cls-1" d="M22.6,22.89h6.59c1.39,0,2,1,1.27,2.18-1.61,2.71-1.19,2.54-4.35,2.53-2.85,0-5.7,0-8.56,0a2,2,0,0,1-2-1.15c-.24-.45-.52-.87-.77-1.31C14,23.86,14.53,22.9,16,22.89Zm-6.84,1.36a14.63,14.63,0,0,0,1,1.58,1.16,1.16,0,0,0,.78.41q5.11,0,10.21,0a.82.82,0,0,0,.6-.2c.39-.54.71-1.14,1.11-1.8Z" transform="translate(-3.15 -4.27)"/><path class="cls-1" d="M12.76,24.91a3,3,0,0,1-6.06,0,3,3,0,1,1,6.06,0Zm-3-1.71a1.7,1.7,0,1,0,1.64,1.71A1.68,1.68,0,0,0,9.79,23.2Z" transform="translate(-3.15 -4.27)"/><path class="cls-1" d="M35.42,27.92a3,3,0,0,1,0-6.06,3,3,0,0,1,0,6.06Zm0-1.33a1.7,1.7,0,1,0-1.73-1.71A1.71,1.71,0,0,0,35.43,26.59Z" transform="translate(-3.15 -4.27)"/><rect class="cls-2" x="12.93" width="13.79" height="3.94" rx="1.88"/><text class="cls-3" transform="translate(14.36 2.67)">FREE <tspan class="cls-4" x="6.46" y="0">C</tspan><tspan x="8" y="0">AB</tspan></text></svg>