<svg id="Layer_1" data-name="Layer 1" xmlns="http://www.w3.org/2000/svg" viewBox="0 0 41.4 41.24"><defs><style>.cls-1{fill:#234e70;}</style></defs><path class="cls-1" d="M17,27.12a2.24,2.24,0,0,0-.73-2.3,9.41,9.41,0,0,1-2.52-6.71,5.48,5.48,0,0,0-1-3.25A3.54,3.54,0,0,1,12.19,13a32.89,32.89,0,0,1,.09-5.16,6.57,6.57,0,0,1,6.17-5.74C21.76,2,25.08,2,28.39,2a2.47,2.47,0,0,1,2.53,2.42.88.88,0,0,0,.39.59,4.41,4.41,0,0,1,2.16,4c0,1.4,0,2.8,0,4.2A4,4,0,0,1,33,14.92a12.48,12.48,0,0,0-1.34,4.29,9.46,9.46,0,0,1-2.91,6.05,1.31,1.31,0,0,0,.43,2.1c3.27,1.18,6.52,2.38,9.8,3.53a5.11,5.11,0,0,1,3.66,4.38c.24,1.62.53,3.24.79,4.86a2.56,2.56,0,0,1-2.54,3.11H5.17a4.93,4.93,0,0,1-1.28-.12,2.54,2.54,0,0,1-1.77-2.9c.28-1.78.59-3.56.9-5.34A4.72,4.72,0,0,1,6.29,31l9.79-3.54ZM15.19,15.6h.06c0,1.16-.07,2.32,0,3.47.26,3.42,2.37,5.51,5.17,7.11A4.49,4.49,0,0,0,25.51,26c.49-.33.9-.79,1.4-1.1a7.09,7.09,0,0,0,3.3-5.56c.21-2.11.13-4.25.18-6.37a2.6,2.6,0,0,0-1.67-2.61A35.7,35.7,0,0,0,25,9a2,2,0,0,0-1.26.08,12.1,12.1,0,0,1-5.67.92,2.8,2.8,0,0,0-2.88,2.84C15.18,13.77,15.19,14.69,15.19,15.6Zm9.58,26.08.08.17H40.51c1.28,0,1.7-.48,1.5-1.76-.26-1.65-.53-3.29-.81-4.93a3.28,3.28,0,0,0-2.08-2.69c-2.31-.87-4.64-1.69-7-2.52,0,0-.08,0-.16.09l.64,1.29c.23.46.46.91.68,1.38.35.76.09,1.18-.76,1.22-.46,0-.93,0-1.44,0,.66,1.63.6,1.36-.52,2.42-.15.14-.32.28-.47.43ZM13.63,30a1.71,1.71,0,0,0-.33,0c-2.25.81-4.5,1.61-6.74,2.45A3.37,3.37,0,0,0,4.37,35.2c-.27,1.59-.53,3.19-.79,4.78-.24,1.41.16,1.87,1.62,1.87H20.75l.17-.25a5,5,0,0,1-.66-.44c-1.87-1.7-3.72-3.42-5.62-5.11-.56-.5-.81-1-.33-1.65a3.14,3.14,0,0,0,.18-.46c-.5,0-.92,0-1.34,0-1,0-1.26-.44-.83-1.34S13.17,30.88,13.63,30Zm0-16.66a3.3,3.3,0,0,0,.14-.35c.24-2.88,1.89-4.44,4.79-4.38a12.32,12.32,0,0,0,4.73-.79,4.25,4.25,0,0,1,2.35-.07A23.92,23.92,0,0,1,29,8.89,4.24,4.24,0,0,1,31.84,13v.8H32V9.15A2.85,2.85,0,0,0,29.94,6a.78.78,0,0,1-.55-1c.22-1.14-.16-1.6-1.34-1.6-3,0-6,0-9.06,0A5.37,5.37,0,0,0,13.64,8.1,47.33,47.33,0,0,0,13.6,13.31ZM29.51,28.84c-.71-.11-1.43-.45-1.85-.23-1.32.71-2.53,1.63-3.85,2.51l2.54,3.46ZM16.17,29l3.06,5.55,2.52-3.47c-1-.69-2.05-1.28-3-2A2,2,0,0,0,16.17,29Zm-2.25,3.53c.7,0,1.22,0,1.72,0s.89.48.63,1.09c-.18.44-.43.86-.68,1.33l4.16,3.8.13-.1-4.74-8.61Zm16.51-2.48L25.7,38.69l.13.11L30,35c-.23-.45-.46-.85-.64-1.26-.31-.69-.07-1.11.68-1.17.49,0,1,0,1.63,0Zm-8.28,3a7.57,7.57,0,0,1,.42,2A21.93,21.93,0,0,1,22,38.44a2.8,2.8,0,0,0,.76,2.48,2.87,2.87,0,0,0,.71-2.79c-.21-.75-.23-1.54-.39-2.31s-.31-1.81.53-2.52l-.82-1.09a3,3,0,0,0-.29.32C22.35,32.76,22.18,33,22.15,33Zm5-6.19-.22-.14c-2.77,2.17-5.55,2.13-8.41.05a1.28,1.28,0,0,0,.39.71c1.15.79,2.31,1.57,3.49,2.32a.86.86,0,0,0,.75,0c1.21-.76,2.39-1.55,3.55-2.36A2.36,2.36,0,0,0,27.14,26.85Zm-5.89,7.6c-1.37,1.37-1.42,1.8-.42,2.74Zm3.13.23.41,2.6C25.71,35.81,25.86,36.22,24.38,34.68Z" transform="translate(-2.09 -2)"/></svg>