<svg id="Layer_1" data-name="Layer 1" xmlns="http://www.w3.org/2000/svg" viewBox="0 0 42.66 42.66"><defs><style>.cls-1{fill:#234e70;}.cls-2{fill:#0e8744;}.cls-3{opacity:0.68;}</style></defs><path class="cls-1" d="M23.56,36h4.3c.05-.22.1-.44.15-.64a4.31,4.31,0,0,1,8.35.13,2.67,2.67,0,0,0,.42.67l.15-.08v.9H8.24c-.9,0-1,0-1-1,0-1.41,0-2.83,0-4.25a3.79,3.79,0,0,1,2.63-3.68c.86-.3,1.73-.58,2.6-.87a1.11,1.11,0,0,0,.32-1.64,4.78,4.78,0,0,1-1.61-2.44c-1.57,0-2-.63-2-1.47s.54-1.36,1.66-1.5L10.43,19A3.69,3.69,0,0,1,13.92,14H17a3.68,3.68,0,0,1,3.43,4.95c-.15.41-.31.81-.47,1.22,1.12.17,1.69.71,1.65,1.56s-.62,1.29-2,1.4A4.65,4.65,0,0,1,18,25.64c-.42.32-.14,1.36.36,1.53l2.6.88a3.78,3.78,0,0,1,2.63,3.68C23.56,33.12,23.56,34.51,23.56,36Zm-6.31,0h2.5V32.64h.94v3.28h1.9c0-1.53,0-3,0-4.51a2.41,2.41,0,0,0-1.28-2.11,26.87,26.87,0,0,0-2.64-1.05L18,29.85c-.38.95-.38.95-1.39.62a3.1,3.1,0,0,0-.15,1C16.69,32.93,17,34.42,17.25,35.93Zm-5-7.64c-.78.27-1.53.47-2.24.77a2.48,2.48,0,0,0-1.65,2.11c-.1,1.58,0,3.17,0,4.75h1.88V32.65h1v3.28h2.45c.27-1.45.54-2.88.77-4.31a5.61,5.61,0,0,0-.11-1.19c-.95.4-1,.37-1.36-.46C12.68,29.43,12.46,28.9,12.21,28.29Zm6.91-8.62c.16-.4.35-.8.47-1.21A2.71,2.71,0,0,0,17,14.91c-1.08,0-2.16,0-3.23,0A2.71,2.71,0,0,0,11.19,17a4.05,4.05,0,0,0,.56,2.65h2.58a2,2,0,0,0,1.87-1.15,4.26,4.26,0,0,1,.68-.74,4.22,4.22,0,0,1,.63.72A2,2,0,0,0,19.12,19.67Zm-2.38-.17a2.72,2.72,0,0,1-2.07,1.14c-.85,0-1.7,0-2.58,0,0,.62,0,1.18,0,1.72a3.38,3.38,0,0,0,3.14,3.06,3.22,3.22,0,0,0,3.48-2.68,10.35,10.35,0,0,0,.05-1.85.51.51,0,0,0-.23-.34C18,20.21,17.39,19.89,16.74,19.5Zm17,16c-.56,0-1,.22-1.27-.28-.06-.11-.39-.15-.52-.09a.46.46,0,0,0,.15.85c1.1,0,2.21,0,3.32,0A3.29,3.29,0,0,0,32,33.1a3.18,3.18,0,0,0-3,2.84h1.81a1.61,1.61,0,0,1,.5-1.57,6.36,6.36,0,0,0,.65-.78h.5c.28.35.49.56.66.81S33.48,35,33.75,35.46ZM16.83,26.29H14c-.31,1.2.85,1.53,1.42,2.33C16,27.81,17.15,27.5,16.83,26.29Zm-1.34,5.42h-.15l-.77,4.24h1.7c-.21-1.18-.41-2.33-.62-3.48C15.6,32.21,15.54,32,15.49,31.71Zm-1.72-2.15.85-.45L13.3,27.88l-.15.15Zm3.32,0,.6-1.57-.13-.07-1.11,1.33-.15-.09Zm-6-7.5v-.91c-.42,0-.88-.08-.88.45S10.66,22.09,11.07,22.06Zm8.69.13a5.61,5.61,0,0,0,.84-.38.43.43,0,0,0,0-.41,5.66,5.66,0,0,0-.84-.37Zm-4.43,8.53h.2l.3-.82-.81.05Z" transform="translate(-1.34 -0.76)"/><path class="cls-1" d="M26.93,11.58h.9c-.07,1.15.76,1.9,1.25,2.81A.79.79,0,0,1,29,15.45c-.92,1-1.81,2.07-2.72,3.1-.27.31-.51.63-.12,1s.66.07.93-.2c.9-.91,1.77-1.84,2.71-2.7a8.67,8.67,0,0,1,1.55-1.06A6.62,6.62,0,0,1,32.66,15a2.77,2.77,0,0,0,1.76-1.48.93.93,0,0,1,1-.55c.48,0,1,0,1.47,0v.89s-.08.06-.11.06a1.91,1.91,0,0,0-2.3,1.15c-.11.25-.54.37-.84.51-.48.23-1,.43-1.49.65v2.59c0,1.33-.53,1.84-1.89,1.8,0,.19,0,.39,0,.58a1.38,1.38,0,0,1-.85,1.21A1.27,1.27,0,0,1,28,22.25a.74.74,0,0,0-.79-.2c-.66.17-1.16-.15-1.67-.95-1.39.09-1.94-.42-1.94-1.82s0-2.71,0-4.06a2,2,0,0,1,.19-.8c.85-1.73,1.7-3.47,2.59-5.18a1.39,1.39,0,0,1,.73-.62c1.23-.45,2.48-.85,3.73-1.26a1.54,1.54,0,0,1,.46-.11h5.65v1c-.82,0-1.63,0-2.44,0a13.88,13.88,0,0,0-6.24,1,2.12,2.12,0,0,0-1.47,1.3,8,8,0,0,1-.5,1,16.12,16.12,0,0,0-1.67,3.55,20.9,20.9,0,0,0-.07,4.41c0,.59.15.71.72.57a2,2,0,0,1,.13-2,3.47,3.47,0,0,0,.09-1.65,1.53,1.53,0,0,1,.44-1.24c.27-.29.5-.62.75-.93.38-.47.89-.87.31-1.58C26.79,12.44,26.93,12,26.93,11.58Zm2.36,7-.18-.08a4.49,4.49,0,0,0-.74,1.13,3.07,3.07,0,0,0,0,1.35c0,.21.29.39.45.58.16-.19.45-.36.46-.56C29.32,20.24,29.29,19.43,29.29,18.62Zm1.92-2c-.63.47-1.1.85-1,1.61a4.71,4.71,0,0,1,0,.84c0,.34.14.65.5.57a.77.77,0,0,0,.44-.56C31.24,18.32,31.21,17.54,31.21,16.63Zm-4.76.26,1.78-2-.41-.64C27.37,15.14,26.3,15.58,26.45,16.89Zm0,3.82-.06.14c.22.08.48.27.66.21s.24-.36.43-.68Z" transform="translate(-1.34 -0.76)"/><path class="cls-2" d="M32.64,27.81a4.31,4.31,0,1,1-4.3-4.29A4.31,4.31,0,0,1,32.64,27.81Zm-4.29-3.33a3.35,3.35,0,1,0,3.33,3.36A3.36,3.36,0,0,0,28.35,24.48Z" transform="translate(-1.34 -0.76)"/><path class="cls-2" d="M36,29.25h-.88V24H36Z" transform="translate(-1.34 -0.76)"/><path class="cls-2" d="M22.63,21.15h.89v3.29h-.89Z" transform="translate(-1.34 -0.76)"/><path class="cls-2" d="M34,25.42h-.89V22.11H34Z" transform="translate(-1.34 -0.76)"/><path class="cls-2" d="M21.61,27.33h-.89V24h.89Z" transform="translate(-1.34 -0.76)"/><path class="cls-2" d="M22.64,25.46h.89v.89h-.89Z" transform="translate(-1.34 -0.76)"/><path class="cls-2" d="M34,27.34h-.87v-.91H34Z" transform="translate(-1.34 -0.76)"/><path class="cls-2" d="M28,30.67,26.71,28.8c.61,0,1-.2,1.32.31,0,.1.34.15.47.09a.52.52,0,0,0,.29-.39.76.76,0,0,0-.3-.45c-.12-.09-.31-.05-.47-.09a1.43,1.43,0,0,1-.57-2.52,6.8,6.8,0,0,0,.62-.77h.59L30,26.86c-.61,0-1,.2-1.31-.31a.48.48,0,0,0-.47-.09.5.5,0,0,0-.29.39.88.88,0,0,0,.3.46c.07.06.23,0,.35.05A1.45,1.45,0,0,1,29.18,30a6.8,6.8,0,0,0-.56.72Z" transform="translate(-1.34 -0.76)"/><g class="cls-3"><path class="cls-1" d="M22,43.4C10.16,42.89.88,33.06,1.36,21.5,1.84,9.59,11.73.27,23.32.78,35.2,1.31,44.45,11.12,44,22.69,43.5,34.59,33.63,43.91,22,43.4ZM9.16,11.81C3.91,18.17,4.59,28.15,10.7,34.22s16,6.58,22.22,1.42Zm27,20.59c5.5-6.8,4.47-17.21-2.31-23.15-7-6.1-16.67-4.89-21.48-.58Z" transform="translate(-1.34 -0.76)"/></g></svg>