<svg id="Layer_1" data-name="Layer 1" xmlns="http://www.w3.org/2000/svg" viewBox="0 0 40 40"><defs><style>.cls-1{fill:#234e70;}</style></defs><path class="cls-1" d="M40.11,27.67h1.27V16.29c0-.24-.07-.54,0-.73a1,1,0,0,1,.66-.49c.19,0,.47.26.58.47a1.64,1.64,0,0,1,.05.74c0,3.83,0,7.66,0,11.5a3.79,3.79,0,0,1-.27,1.36C41.7,31.06,41,33,40.15,34.86c-.14.32-.53.55-.8.82-.25-.26-.6-.49-.73-.8q-1.23-3-2.38-5.94a2.9,2.9,0,0,1-.18-1.05q0-10.66,0-21.33a3.33,3.33,0,1,1,6.66,0c0,2.06,0,4.11,0,6.17,0,.48-.06,1-.64,1s-.71-.48-.7-1v-1.6H40.11Zm-1.45,0V11.07H37.43V27.65ZM37.43,7h3.91c.1-1.58-.65-2.57-1.91-2.61A2.09,2.09,0,0,0,37.43,7Zm0,2.66h3.92V8.41H37.41ZM37.78,29c.43,1.47.47,1.5,2.35,1.31.79-.09.63-.79.86-1.31ZM40,31.73H38.8l.59,1.45Z" transform="translate(-2.73 -1.69)"/><path class="cls-1" d="M8.7,5.69c.1-1.29.14-1.33,1.36-1.33.25,0,.5,0,.75,0,.77.07,1.23-.11,1.32-1A1.87,1.87,0,0,1,14.06,1.7q4,0,8,0a1.9,1.9,0,0,1,2,1.76c.09.74.44,1,1.1.9.33,0,.67,0,1,0,1.14,0,1.21.07,1.3,1.33h3.94c2.16,0,2-.12,2,2,0,3,0,6.11,0,9.16,0,.2.07.43,0,.58a7,7,0,0,1-.66.88c-.22-.3-.62-.59-.63-.89,0-2.52,0-5.05,0-7.58V7.09H27.39c0,.53,0,1.05,0,1.57,0,.74-.27,1.05-1,1-3.31,0-6.61,0-9.91,0-.5,0-1,0-1-.66s.51-.68,1-.68H26V5.7H24.87a2,2,0,0,1-2.12-1.8c-.08-.63-.35-.87-1-.86-2.5,0-5,0-7.49,0a1.15,1.15,0,0,0-.86.65c-.41,1.53-.91,2-2.48,2h-.84V8.36h3c.49,0,.95.06,1,.65s-.44.69-.93.69c-1.14,0-2.28,0-3.41,0-.73,0-1-.32-1-1,0-.52,0-1,0-1.6H4.08V25a1.76,1.76,0,0,1,0,.73c-.12.24-.42.58-.59.55S3,26,2.78,25.74s0-.37,0-.57V6.93c0-1.15.09-1.24,1.24-1.24Z" transform="translate(-2.73 -1.69)"/><path class="cls-1" d="M4.08,40.33h28V21c0-.22-.07-.49,0-.65a4,4,0,0,1,.67-.69,4.88,4.88,0,0,1,.62.67c.08.14,0,.38,0,.57V40.43c0,1.18-.08,1.26-1.3,1.26h-28c-1.22,0-1.3-.08-1.3-1.26V28.94c0-.22-.07-.49,0-.66s.42-.56.6-.54.51.32.67.57,0,.43,0,.65V40.33Z" transform="translate(-2.73 -1.69)"/><path class="cls-1" d="M11.4,11.69a6,6,0,1,1-6,6A6,6,0,0,1,11.4,11.69Zm0,1.34a4.66,4.66,0,1,0,4.63,4.7A4.67,4.67,0,0,0,11.44,13Z" transform="translate(-2.73 -1.69)"/><path class="cls-1" d="M11.41,26.36a6,6,0,1,1-6,6A6,6,0,0,1,11.41,26.36Zm4.66,6A4.66,4.66,0,1,0,11.38,37,4.67,4.67,0,0,0,16.07,32.38Z" transform="translate(-2.73 -1.69)"/><path class="cls-1" d="M26.39,16.36c.94,0,1.89-.05,2.82,0a1.08,1.08,0,0,1,.8.6c.1.5-.31.7-.8.7H23.57c-.48,0-.89-.2-.79-.7a1.06,1.06,0,0,1,.79-.6C24.51,16.31,25.45,16.36,26.39,16.36Z" transform="translate(-2.73 -1.69)"/><path class="cls-1" d="M26.42,21.69c.91,0,1.83-.06,2.74,0,.31,0,.59.4.89.62-.29.23-.57.64-.86.65-1.85.06-3.71.06-5.56,0-.3,0-.59-.41-.89-.63.29-.23.56-.62.86-.65C24.53,21.63,25.48,21.69,26.42,21.69Z" transform="translate(-2.73 -1.69)"/><path class="cls-1" d="M26.39,29H23.57c-.48,0-.89-.2-.79-.7a1,1,0,0,1,.79-.6c1.88-.06,3.76,0,5.64,0,.48,0,.9.2.8.7a1.08,1.08,0,0,1-.8.6C28.28,29.07,27.33,29,26.39,29Z" transform="translate(-2.73 -1.69)"/><path class="cls-1" d="M26.42,31.69c-.92,0-1.83,0-2.74,0-.5,0-1-.12-.9-.68a1.11,1.11,0,0,1,.85-.63c1.85-.06,3.71-.06,5.56,0,.29,0,.57.43.86.66-.3.22-.58.59-.9.62C28.25,31.74,27.33,31.69,26.42,31.69Z" transform="translate(-2.73 -1.69)"/><path class="cls-1" d="M25.65,20.36H23.57c-.48,0-.89-.2-.79-.7a1,1,0,0,1,.79-.61c1.43-.06,2.87,0,4.31,0,.48,0,.9.2.79.7a1.07,1.07,0,0,1-.79.61A18.41,18.41,0,0,1,25.65,20.36Z" transform="translate(-2.73 -1.69)"/><path class="cls-1" d="M25.36,15a11,11,0,0,1-1.82,0c-.29-.05-.53-.41-.8-.63.26-.23.51-.63.78-.65a33.15,33.15,0,0,1,3.73,0c.28,0,.53.41.8.63-.26.23-.5.6-.79.64A12,12,0,0,1,25.36,15Z" transform="translate(-2.73 -1.69)"/><path class="cls-1" d="M25.4,33a13.37,13.37,0,0,1,1.9,0c.27,0,.5.39.75.6-.25.23-.49.66-.75.67a34.59,34.59,0,0,1-3.81,0c-.26,0-.5-.39-.75-.59.25-.24.47-.63.75-.68A12.14,12.14,0,0,1,25.4,33Z" transform="translate(-2.73 -1.69)"/><path class="cls-1" d="M21.68,14.4c-.47.29-.75.59-1,.57s-.6-.46-.56-.61a1,1,0,0,1,.67-.62C21,13.71,21.26,14.07,21.68,14.4Z" transform="translate(-2.73 -1.69)"/><path class="cls-1" d="M21.68,17c-.46.31-.72.62-1,.61s-.62-.44-.58-.6a1,1,0,0,1,.65-.63C21,16.37,21.24,16.71,21.68,17Z" transform="translate(-2.73 -1.69)"/><path class="cls-1" d="M20.77,18.74c.29.47.59.75.57,1s-.46.61-.61.56a1,1,0,0,1-.61-.67C20.09,19.43,20.44,19.17,20.77,18.74Z" transform="translate(-2.73 -1.69)"/><path class="cls-1" d="M21.68,22.41c-.47.28-.75.58-1,.56s-.6-.47-.55-.62a1,1,0,0,1,.68-.61C21,21.71,21.26,22.07,21.68,22.41Z" transform="translate(-2.73 -1.69)"/><path class="cls-1" d="M21.68,28.36c-.46.31-.72.62-1,.61s-.62-.44-.58-.59a1,1,0,0,1,.65-.64C21,27.7,21.24,28,21.68,28.36Z" transform="translate(-2.73 -1.69)"/><path class="cls-1" d="M20.72,30.07c.31.45.63.71.63,1s-.38.43-.6.64c-.22-.23-.58-.42-.63-.69S20.41,30.52,20.72,30.07Z" transform="translate(-2.73 -1.69)"/><path class="cls-1" d="M20.71,32.73c.32.45.64.71.64,1s-.38.43-.59.64c-.23-.22-.58-.41-.64-.67S20.4,33.19,20.71,32.73Z" transform="translate(-2.73 -1.69)"/><path class="cls-1" d="M10,18.23,12.79,16c.38-.31.77-.49,1.14,0s.05.78-.3,1.05c-1,.8-2,1.58-3,2.39a.76.76,0,0,1-1.17,0,10.65,10.65,0,0,1-1.14-1.19c-.15-.22,0-.62-.07-.94.32,0,.71-.11.94,0A3.85,3.85,0,0,1,10,18.23Z" transform="translate(-2.73 -1.69)"/><path class="cls-1" d="M10.58,32.37,9.2,31.09c-.36-.35-.7-.73-.22-1.2s.82-.11,1.13.23.77.87,1.28,1.44A14,14,0,0,1,12.86,30c.22-.18.66-.08,1-.1,0,.34.06.77-.12,1a13.18,13.18,0,0,1-1.5,1.46,13.87,13.87,0,0,1,1.5,1.43c.18.22.09.66.12,1-.34,0-.78.07-1-.1a14.1,14.1,0,0,1-1.51-1.59A13,13,0,0,1,10,34.68a1,1,0,0,1-1,.12c-.44-.29-.27-.72.08-1Z" transform="translate(-2.73 -1.69)"/></svg>