<svg id="Layer_1" data-name="Layer 1" xmlns="http://www.w3.org/2000/svg" viewBox="0 0 35 40"><defs><style>.cls-1{fill:#234e70;}</style></defs><path class="cls-1" d="M6.41,39.65H9.62V34.71c0-.42,0-.91.57-.92s.59.46.59.9v5H34.64V36.08a9,9,0,0,1,0-1.56c0-.27.38-.49.58-.74.18.24.51.47.52.71.06,1.38,0,2.76,0,4.14v1h3.3a50,50,0,0,0-.34-6.27,5.9,5.9,0,0,0-4.08-4.53c-1.17-.42-2.36-.78-3.55-1.11a.92.92,0,0,0-.77.23c-.81.87-1.59,1.78-2.36,2.68a2.65,2.65,0,0,1-3.33.87,4.45,4.45,0,0,0-4,0,2.46,2.46,0,0,1-3.22-.86c-.75-.92-1.57-1.79-2.33-2.71a.73.73,0,0,0-.93-.25c-1,.37-2.12.66-3.18,1a6.6,6.6,0,0,0-4.11,3.76c0,.07,0,.18-.09.21-.27.18-.54.34-.82.5-.08-.31-.32-.68-.23-.93a7.34,7.34,0,0,1,4.53-4.51c1.65-.59,3.33-1.09,5-1.59,1-.29,1.94-.49,2.9-.77a.87.87,0,0,0,.44-.53c0-.07-.24-.34-.41-.39-1.37-.37-2.75-.7-4.12-1.06a3.42,3.42,0,0,1-2.78-3.54c0-.39,0-.78,0-1.17a2.2,2.2,0,0,0-.4-1.6,1.89,1.89,0,0,1-.25-1c0-.8,0-1.61,0-2.42a1.54,1.54,0,0,1,.18-.9,2.89,2.89,0,0,0,.5-2.05A10.32,10.32,0,0,1,21,.92a13.46,13.46,0,0,1,6.61.89,10.32,10.32,0,0,1,5,5c.2.41.44.87-.13,1.13s-.72-.22-.91-.6A9,9,0,0,0,23.5,2.07C20.81,2,18.23,2.24,16,4a9.39,9.39,0,0,0-3.51,8.32c0,.21.34.48.58.56a11.68,11.68,0,0,0,7.16-.09A24.25,24.25,0,0,0,27.42,9.2c.83-.59,1-.56,1.45.35a5.23,5.23,0,0,0,3.6,2.8c0-.71,0-1.32,0-1.94,0-.42-.07-.91.53-.93s.59.46.63.88a3.94,3.94,0,0,0,.08.77c.12.36.32.69.47,1a5.36,5.36,0,0,1,.55,1.4,19.75,19.75,0,0,1,0,2.18,2.09,2.09,0,0,1-.83,2,.88.88,0,0,0-.22.6c0,.52,0,1,0,1.56A3.45,3.45,0,0,1,31,23.4c-1.39.39-2.79.75-4.2,1.12,0,.55,0,.91.68.87a2.18,2.18,0,0,1,.75.15c2.17.67,4.34,1.34,6.5,2a7.76,7.76,0,0,1,5.51,7.48c0,1.43,0,2.86,0,4.3,0,1.06-.47,1.51-1.53,1.51H6.74c-1,0-1.5-.46-1.52-1.53s0-2.4,0-3.59c0-.44,0-.91.6-.91s.59.47.59.92Zm8.46-25.11c-.72,5.63,4.41,9.57,8.39,8.86-.77-.9-.92-1.65-.48-2.38.62-1,3.56-1.48,4.46-.72,0,0,.07.09.12.11a2.87,2.87,0,0,0,.72.23,1.54,1.54,0,0,0,1.39-.91c1.31-2,1.2-4.3,1.15-6.57,0-.14-.18-.29-.3-.4l-2.6-2.3C24,13,19.8,14.94,14.87,14.54ZM20,24.31l-.61,2,3.29,3.14L26,26.26l-.62-2A9.58,9.58,0,0,1,20,24.31Zm-3-1.36a11.93,11.93,0,0,1-2.84-4.09c-.4-1-.58-1.11-1.73-.76,0,.66,0,1.34,0,2a2.07,2.07,0,0,0,1.45,2C15,22.45,16,22.67,17.07,23Zm4.53,7c-1.2-1.15-2.28-2.19-3.37-3.21a.59.59,0,0,0-.46-.15c-.58.14-1.14.34-1.79.54.94,1.09,1.75,2.1,2.66,3a1.69,1.69,0,0,0,1.23.36A8.29,8.29,0,0,0,21.6,30Zm7.85-2.81c-.56-.18-1-.35-1.49-.48-.21-.05-.53-.12-.64,0-1.16,1.05-2.28,2.14-3.5,3.3.56.19,1,.32,1.37.47a1.38,1.38,0,0,0,1.58-.28C27.67,29.22,28.53,28.22,29.45,27.17ZM31.82,16.8a4.45,4.45,0,0,0,1.16,0,.9.9,0,0,0,.56-.58c.06-.86,0-1.73,0-2.52l-1.75-.18Zm-20-3v1.66c0,1.31.05,1.36,1.33,1.32a3.29,3.29,0,0,0,.44-.05c.07-2.47.07-2.47-1.61-3Zm16.32,9.11c1-.28,1.91-.48,2.76-.75a2,2,0,0,0,1.5-2,7.11,7.11,0,0,1-2,1.21A5.11,5.11,0,0,0,28.18,22.93Zm-4-.45c.77-.14,1.39-.21,2-.38.19-.06.3-.4.44-.61-.21-.14-.42-.42-.62-.41a8.07,8.07,0,0,0-1.83.32.74.74,0,0,0-.41.6C23.77,22.19,24.08,22.36,24.2,22.48Z" transform="translate(-5.22 -0.87)"/><path class="cls-1" d="M15.44,37.45H13.35a1,1,0,0,1-1.14-1.09,17.81,17.81,0,0,1,0-1.79,1.06,1.06,0,0,1,1.13-1.12c1.39,0,2.78,0,4.17,0,.75,0,1.12.41,1.15,1.18a16.26,16.26,0,0,1,0,1.71,1,1,0,0,1-1.13,1.1Zm-2-1.2h4V34.67h-4Z" transform="translate(-5.22 -0.87)"/></svg>