<svg id="Layer_1" data-name="Layer 1" xmlns="http://www.w3.org/2000/svg" viewBox="0 0 45 40"><defs><style>.cls-1{fill:#234e70;}</style></defs><path class="cls-1" d="M11.44,23.84a45,45,0,0,1,22.49,0c0-.73,0-1.37,0-2a1.46,1.46,0,0,1,1-1.62,45.28,45.28,0,0,0,5.16-2.49,10.09,10.09,0,0,0,2.6-2.47,3.3,3.3,0,0,0,0-4.27A12.07,12.07,0,0,0,40,8.37,24.19,24.19,0,0,0,30,4.76c-1.1-.19-2.21-.31-3.31-.44-.62-.07-1-.41-1-1.27s.5-1.08,1.07-1c4.68.49,9.3,1.38,13.6,4A15.75,15.75,0,0,1,42.75,7.9a7.9,7.9,0,0,1,2.44,6.32c-.09,5.8-.07,11.6,0,17.4a7.73,7.73,0,0,1-2,5.66,17,17,0,0,1-7,4.29c-2,.76-2.21.55-2.21-2.22,0-4.08,0-8.17,0-12.25,0-.69-.13-1-.69-1.11a43.52,43.52,0,0,0-21.54.13c-.06,0-.11.06-.27.17v1.14q0,6.41,0,12.82c0,1.51-.41,1.94-1.52,1.56a18.76,18.76,0,0,1-6.47-3.4,10.28,10.28,0,0,1-2.32-2.73,7.72,7.72,0,0,1-.88-3.36c-.08-6.33,0-12.67,0-19A7,7,0,0,1,2.26,8.26,15.53,15.53,0,0,1,9.63,3.92c2.87-.82,5.81-1.27,8.72-1.87.63-.13,1.25,0,1.33,1s-.5,1.21-1.16,1.28a29.91,29.91,0,0,0-11.21,3,17,17,0,0,0-4.1,3c-1.76,1.78-1.66,4,.09,5.84A16.12,16.12,0,0,0,9.71,20c1.71.62,1.71.61,1.73,2.89ZM2,17.66c0,4.93,0,9.57,0,14.22A4.72,4.72,0,0,0,3,35c1.89,2.32,4.25,3.34,6.73,4.32,0-5.55,0-11,0-16.36a1.07,1.07,0,0,0-.43-.79A17.2,17.2,0,0,1,2,17.66Zm41.44,0a15.93,15.93,0,0,1-7,4.45c-.57.2-.73.5-.72,1.23,0,5.07,0,10.13,0,15.2,0,.24,0,.49.05.83a17.24,17.24,0,0,0,5.87-3.4,5.61,5.61,0,0,0,1.82-4.61c-.1-3.69,0-7.39,0-11.08Z" transform="translate(-0.19 -1.95)"/><path class="cls-1" d="M33.42,15.64a30.6,30.6,0,0,0-21.66-.19c.47.34.83.46,1,.75s.46,1.07.33,1.34-.75.75-1,.63a26,26,0,0,1-3.23-1.75,1.18,1.18,0,0,1-.41-1.53c.57-1.38,1.12-2.77,1.79-4.06a1,1,0,0,1,1.1-.34c.5.22.6.88.33,1.53l-.54,1.27a33.6,33.6,0,0,1,23.16,0A5.08,5.08,0,0,1,33.73,12c0-.49.07-1.23.32-1.43a.92.92,0,0,1,1.09.27C35.82,12.12,36.4,13.54,37,15a1.16,1.16,0,0,1-.54,1.55c-1,.55-1.93,1.07-2.9,1.61-.53.3-1,.2-1.25-.52A1.25,1.25,0,0,1,32.8,16Z" transform="translate(-0.19 -1.95)"/><path class="cls-1" d="M29.75,34.66c0,.65,0,1.3,0,1.94-.07,1.71-1,3-2.32,3.17a2.65,2.65,0,0,1-2.67-2.65,27.14,27.14,0,0,1,0-4.77c.15-1.77,1.34-2.83,2.71-2.69s2.23,1.42,2.3,3.17C29.77,33.44,29.75,34.05,29.75,34.66ZM28,34.77A10,10,0,0,0,28,33c-.08-.38-.47-1-.67-.93a1.24,1.24,0,0,0-.83.85,22.24,22.24,0,0,0,0,3.65,1.27,1.27,0,0,0,.82.88c.2,0,.59-.54.67-.93A8.71,8.71,0,0,0,28,34.77Z" transform="translate(-0.19 -1.95)"/><path class="cls-1" d="M15.55,29.7c1.68,0,2.77,2.2,2.17,4.29a2.85,2.85,0,0,0,0,1.42c.49,1.73-.15,3.61-1.48,4.15s-2.7-.5-3-2.19c-.13-.74-.14-1.53.56-1.8s1,.29,1.17,1.09a1.1,1.1,0,0,0,.65.68c.11,0,.5-.49.47-.62a2.93,2.93,0,0,0-.55-.86c-.29-.4-.75-.75-.82-1.21-.05-.28.51-.72.79-1.09a2.81,2.81,0,0,0,.58-.84c.05-.13-.31-.69-.43-.66a1.12,1.12,0,0,0-.71.61c-.31.69-.67,1.1-1.27.7s-.55-1.07-.33-1.78A2.42,2.42,0,0,1,15.55,29.7Z" transform="translate(-0.19 -1.95)"/><path class="cls-1" d="M21.65,32.86c.24.12.49.22.73.36a3.71,3.71,0,0,1,1.38,4c-.38,1.61-1.57,2.58-2.85,2.33a3.12,3.12,0,0,1-2.11-3.28,9.39,9.39,0,0,1,2.27-6.07c.43-.49,1-.59,1.29.08a2.67,2.67,0,0,1-.14,1.58c-.11.32-.51.47-.78.69Zm-.37,1.93c-.34.69-.71,1.12-.67,1.48s.49.94.74.92.7-.61.71-1S21.67,35.45,21.28,34.79Z" transform="translate(-0.19 -1.95)"/><path class="cls-1" d="M22.46,4.27c-.21-.41-.65-.9-.59-1.23A1.53,1.53,0,0,1,22.73,2c.22-.05.75.66.77,1s-.41.88-.65,1.31Z" transform="translate(-0.19 -1.95)"/><path class="cls-1" d="M31.5,32.52c-.22-.45-.62-.92-.6-1.36a1.39,1.39,0,0,1,.83-1c.53-.13.91.43.8,1.13a4.29,4.29,0,0,1-.65,1.23Z" transform="translate(-0.19 -1.95)"/></svg>