<svg id="Layer_1" data-name="Layer 1" xmlns="http://www.w3.org/2000/svg" viewBox="0 0 40 40"><defs><style>.cls-1{fill:#234e70;}</style></defs><path class="cls-1" d="M30.59,35.14V37h5.35V18.75a2.16,2.16,0,0,1,0-.81c.12-.25.38-.56.58-.56s.5.35.54.6a9.71,9.71,0,0,1,0,1.53c0,2.67,0,5.33.13,8a18.19,18.19,0,0,1,.89-2.12c.22-.39.63-.85,1-.85s.79.44,1,.83c.7,1.56,1.29,3.17,1.94,4.75A1.45,1.45,0,0,1,41.65,32a5.42,5.42,0,0,1-.6.58c-1.63,1-1.43,2.7-1.28,4.48a6.82,6.82,0,0,1,1.11,0c1.4.25,1.49.87,1.43,3.21,0,1.21-.51,1.84-1.51,1.84H13.94c-.45,0-.9,0-.87-.73s.54-.62.95-.62H39.47c1.85,0,1.85,0,1.58-2.25H3.5a11.6,11.6,0,0,0,0,1.77c0,.2.42.45.66.46,2.13,0,4.26,0,6.4,0a1.44,1.44,0,0,1,.75.14.81.81,0,0,1,.22.68.83.83,0,0,1-.54.5,11.61,11.61,0,0,1-1.56,0H4.08c-1.32,0-1.76-.52-1.76-2.09v-.91c0-1.52.46-2,1.8-2.06h.79c0-1,0-1.93,0-2.86a1.2,1.2,0,0,0-.37-.64C4,33,3.43,32.45,2.87,31.9a1.36,1.36,0,0,1-.3-1.62c.65-1.65,1.28-3.31,2-4.92.16-.37.62-.8.92-.78a1.57,1.57,0,0,1,1,.84c.37.65.6,1.4,1,2.11V12.73c0-1.77,1.49-2.82,2.86-2a.8.8,0,0,1,.31.57,1.47,1.47,0,0,1-.35.63c-.05.07-.2.05-.3.06-1.32.15-1.32.15-1.32,1.73V37H14V35h-2.3c-1.22,0-1.72-.58-1.72-2,0-1.73,0-3.45,0-5.18,0-1.41.48-1.95,1.71-2H14V23.2H11.73c-1.26,0-1.74-.58-1.74-2.05,0-1.72,0-3.45,0-5.17,0-1.31.49-1.87,1.62-1.89H14V12a4.63,4.63,0,0,1-1.24,0c-.25-.08-.43-.45-.65-.68.21-.21.41-.53.65-.6a5.63,5.63,0,0,1,1.31,0V7.85c0-1.3,0-2.61,0-3.91,0-1.13.51-1.78,1.39-1.79q6.84,0,13.67,0c.89,0,1.39.65,1.4,1.78,0,1.87,0,3.75,0,5.63v1.09h4.5c1.75,0,2.09.39,2.09,2.45a13.64,13.64,0,0,1,0,1.81c0,.27-.35.5-.53.75-.21-.25-.58-.48-.61-.75-.07-.93,0-1.86,0-2.86H30.6v2H33c1.17,0,1.64.57,1.65,1.94,0,1.76,0,3.51,0,5.27,0,1.29-.53,1.88-1.64,1.89-.77,0-1.55,0-2.39,0v2.71c.86,0,1.69,0,2.52,0s1.49.6,1.5,1.74c0,1.84,0,3.69,0,5.54,0,1.21-.54,1.8-1.61,1.82l-2.26,0C30.71,35,30.67,35.09,30.59,35.14ZM29.32,37V3.56h-14V37h3.35V31.23l-.31-.12c-1-.35-1.34-1.11-1.18-2.48a1.48,1.48,0,0,1,1.61-1.44c2.37,0,4.73,0,7.1,0,1,0,1.51.58,1.56,1.68.06,1.4-.16,1.75-1.49,2.41V37ZM5.53,32.66c.52-.51,1.06-1,1.57-1.57a.74.74,0,0,0,.1-.6c-.53-1.38-1.09-2.75-1.7-4.27l-1,2.43C3.55,31.05,3.55,31.06,5.53,32.66Zm33.66,0c.49-.47,1-1,1.5-1.49a.7.7,0,0,0,.19-.52c-.55-1.43-1.13-2.85-1.75-4.4l-1,2.38c-1,2.42-1,2.42.91,4ZM21.67,31.22H19.91V37h1.76Zm1.31,0V37h1.78v-4.1C24.76,31,24.76,31,23,31.22ZM18.45,29.7h7.8l-.05-1.18c-2.39,0-4.7,0-7,0C18.38,28.49,18.23,28.86,18.45,29.7ZM14,15.43c-.85,0-1.62,0-2.39,0a.64.64,0,0,0-.43.43c-.05.67,0,1.35,0,2H14ZM33.44,17.9c0-.68,0-1.31,0-1.93,0-.19-.23-.5-.36-.51-.82-.05-1.64,0-2.47,0V17.9ZM14.05,19.37H11.24v2.36h2.81Zm16.54,2.37h2.8V19.39h-2.8Zm-19.32,8H14V27.25H13c-2,0-2,0-1.79,2.32C11.21,29.6,11.23,29.62,11.27,29.71Zm22.17,0c0-.71,0-1.34,0-2,0-.18-.24-.48-.38-.49-.8-.05-1.6,0-2.43,0v2.49ZM14,31.2H11.25v2.37H14Zm16.55,2.37h2.79V31.2H30.59ZM7.46,32.75c-1.95.84-1.28,2.67-1.38,4.24H7.46Zm29.74,0V37h1.33C38.47,35.38,39.06,33.6,37.2,32.74Z" transform="translate(-2.32 -2.14)"/><path class="cls-1" d="M16.37,15.31c0-2.77.16-3,2.56-3s2.55.22,2.55,3-.19,3-2.51,3S16.37,18.14,16.37,15.31Zm3.87,1.56V13.75c-.79,0-1.53,0-2.27,0a.65.65,0,0,0-.42.46c0,.86,0,1.72,0,2.64Z" transform="translate(-2.32 -2.14)"/><path class="cls-1" d="M25.64,18.31h-.7c-1.31,0-1.78-.55-1.79-2.07,0-.72,0-1.45,0-2.17,0-1.08.54-1.67,1.46-1.71.72,0,1.45,0,2.17,0,.93,0,1.44.64,1.46,1.7,0,.79,0,1.57,0,2.36,0,1.3-.5,1.87-1.6,1.89C26.31,18.32,26,18.31,25.64,18.31Zm-1.26-1.4c.81,0,1.58,0,2.34,0,.13,0,.35-.28.35-.44,0-.86,0-1.73,0-2.64H24.38Z" transform="translate(-2.32 -2.14)"/><path class="cls-1" d="M19,5.37c2.37,0,2.53.18,2.53,2.93s-.15,3-2.56,3-2.55-.15-2.55-3S16.51,5.37,19,5.37ZM17.54,9.88h2.69V6.72c-.79,0-1.51,0-2.23,0-.16,0-.44.27-.44.43C17.51,8.07,17.54,9,17.54,9.88Z" transform="translate(-2.32 -2.14)"/><path class="cls-1" d="M25.75,5.37c2.35,0,2.51.18,2.51,2.94s-.13,3-2.55,3-2.56-.16-2.56-3S23.29,5.37,25.75,5.37Zm1.33,4.54c0-1,0-1.89,0-2.81,0-.13-.23-.36-.35-.36-.77,0-1.54,0-2.31,0V9.91Z" transform="translate(-2.32 -2.14)"/><path class="cls-1" d="M16.37,22.25c0-2.67.17-2.87,2.48-2.87,2.51,0,2.63.14,2.63,3.09,0,.36,0,.73,0,1.09,0,1.14-.53,1.7-1.52,1.74-.67,0-1.35,0-2,0-1.07,0-1.54-.6-1.55-1.87C16.36,23,16.37,22.65,16.37,22.25Zm3.87-1.38c-2.32-.67-2.88-.16-2.71,2.44,0,.06,0,.14,0,.18s.24.42.37.43c.77,0,1.54,0,2.33,0Z" transform="translate(-2.32 -2.14)"/><path class="cls-1" d="M25.74,19.38c2.36,0,2.52.19,2.52,2.93s-.14,3-2.54,3-2.57-.17-2.57-3S23.3,19.38,25.74,19.38Zm-1.36,4.5h2.71c0-.93,0-1.8,0-2.67,0-.16-.22-.45-.34-.46-.77,0-1.55,0-2.35,0Z" transform="translate(-2.32 -2.14)"/></svg>